# This file uses centimeters as units for non-parametric coordinates.

mtllib BOMBSlow.mtl
g default
v -3.426963 6.584900 -1.231569
v -3.660523 6.851588 -1.243393
v -3.992577 6.976440 -1.237503
v -4.345024 6.935116 -1.246025
v -4.637000 6.733006 -1.243275
v -4.802372 6.418781 -1.245619
v -4.802273 6.063623 -1.245042
v -4.636655 5.749675 -1.240662
v -4.344818 5.547805 -1.242732
v -3.992652 5.506576 -1.233856
v -3.660854 5.631266 -1.240097
v -3.427226 5.897613 -1.229894
v -3.340474 6.241190 -1.241617
v -4.081629 6.241099 -1.254297
v -4.086926 6.243459 1.500182
v -2.922230 6.852293 3.700240
v -3.332830 7.333503 3.706633
v -3.927910 7.548014 3.701114
v -4.555941 7.478291 3.704577
v -5.072662 7.114885 3.701564
v -5.367225 6.556761 3.702189
v -5.366808 5.925832 3.701770
v -5.071218 5.368900 3.700008
v -4.555064 5.006490 3.702527
v -3.928255 4.937156 3.698858
v -3.334227 5.151013 3.704631
v -2.923321 5.630792 3.699179
v -2.756170 6.241244 3.708271
v -2.921475 6.850811 0.064536
v -3.330054 7.332087 0.052271
v -3.924419 7.547462 0.060911
v -4.552820 7.479881 0.052940
v -5.071045 7.116502 0.057242
v -5.367082 6.557673 0.055010
v -5.366648 5.924821 0.055414
v -5.069540 5.367222 0.059054
v -4.551919 5.004888 0.055237
v -3.924758 4.937710 0.063440
v -3.331508 5.152399 0.054576
v -2.922611 5.632184 0.065700
v -2.756179 6.241192 0.051089
v -3.449704 6.573491 5.341684
v -3.169058 6.720734 5.292016
v -3.670366 6.834878 5.341438
v -3.491601 7.095760 5.309500
v -3.995630 6.952645 5.341151
v -3.957940 7.269776 5.291430
v -4.336478 6.917032 5.340871
v -4.451313 7.215334 5.300815
v -4.620709 6.717746 5.340697
v -4.861862 6.930558 5.290962
v -4.781776 6.414743 5.340682
v -5.094116 6.490753 5.293741
v -4.781544 6.067186 5.340755
v -5.093309 5.990828 5.294674
v -4.619833 5.764845 5.341017
v -4.859651 5.552758 5.291834
v -4.335993 5.566105 5.341294
v -4.449909 5.269723 5.302812
v -3.995696 5.530863 5.341585
v -3.958384 5.215866 5.293407
v -3.671261 5.648193 5.341827
v -3.493800 5.388740 5.310933
v -3.450395 5.908607 5.341891
v -3.170852 5.761518 5.293037
v -3.359277 6.240935 5.341923
v -3.044809 6.240684 5.313963
v 3.426963 6.584900 -1.231569
v 3.660523 6.851588 -1.243393
v 3.992577 6.976440 -1.237503
v 4.345024 6.935116 -1.246025
v 4.637000 6.733006 -1.243275
v 4.802372 6.418781 -1.245619
v 4.802272 6.063623 -1.245042
v 4.636654 5.749675 -1.240662
v 4.344818 5.547805 -1.242732
v 3.992652 5.506576 -1.233856
v 3.660854 5.631266 -1.240097
v 3.427226 5.897613 -1.229894
v 3.340474 6.241190 -1.241617
v 4.081628 6.241099 -1.254297
v 4.086926 6.243459 1.500182
v 2.922230 6.852293 3.700240
v 3.332830 7.333503 3.706633
v 3.927910 7.548014 3.701114
v 4.555940 7.478291 3.704577
v 5.072661 7.114885 3.701564
v 5.367225 6.556761 3.702189
v 5.366808 5.925832 3.701770
v 5.071218 5.368900 3.700008
v 4.555064 5.006490 3.702527
v 3.928255 4.937156 3.698858
v 3.334227 5.151013 3.704631
v 2.923320 5.630792 3.699179
v 2.756170 6.241244 3.708271
v 2.921474 6.850811 0.064536
v 3.330053 7.332087 0.052271
v 3.924418 7.547462 0.060911
v 4.552820 7.479881 0.052940
v 5.071044 7.116502 0.057242
v 5.367082 6.557673 0.055010
v 5.366648 5.924821 0.055414
v 5.069540 5.367222 0.059054
v 4.551919 5.004888 0.055237
v 3.924758 4.937710 0.063440
v 3.331507 5.152399 0.054576
v 2.922611 5.632184 0.065700
v 2.756178 6.241192 0.051089
v 3.449704 6.573491 5.341684
v 3.169058 6.720734 5.292016
v 3.670365 6.834878 5.341438
v 3.491600 7.095760 5.309500
v 3.995630 6.952645 5.341151
v 3.957940 7.269776 5.291430
v 4.336478 6.917032 5.340871
v 4.451312 7.215334 5.300815
v 4.620708 6.717746 5.340697
v 4.861861 6.930558 5.290962
v 4.781776 6.414743 5.340682
v 5.094115 6.490753 5.293741
v 4.781543 6.067186 5.340755
v 5.093308 5.990828 5.294674
v 4.619833 5.764845 5.341017
v 4.859651 5.552758 5.291834
v 4.335993 5.566105 5.341294
v 4.449909 5.269723 5.302812
v 3.995696 5.530863 5.341585
v 3.958384 5.215866 5.293407
v 3.671261 5.648193 5.341827
v 3.493800 5.388740 5.310933
v 3.450395 5.908607 5.341891
v 3.170852 5.761518 5.293037
v 3.359277 6.240935 5.341923
v 3.044809 6.240684 5.313963
vt 0.071300 0.518703
vt 0.090163 0.514951
vt 0.099206 0.570327
vt 0.081564 0.574338
vt 0.062244 0.493802
vt 0.081074 0.490040
vt 0.109323 0.511712
vt 0.116719 0.567348
vt 0.105202 0.595984
vt 0.089620 0.599137
vt 0.052711 0.522434
vt 0.063576 0.579390
vt 0.100926 0.486555
vt 0.128665 0.509163
vt 0.134170 0.565106
vt 0.121242 0.593022
vt 0.075208 0.604019
vt 0.121221 0.483778
vt 0.148213 0.507615
vt 0.151569 0.563363
vt 0.137396 0.590812
vt 0.153709 0.589384
vt 0.206965 0.507302
vt 0.226492 0.508794
vt 0.221510 0.564466
vt 0.203995 0.563034
vt 0.203703 0.481174
vt 0.223638 0.482282
vt 0.245914 0.511114
vt 0.239031 0.566569
vt 0.218634 0.590169
vt 0.202398 0.589170
vt 0.187390 0.506620
vt 0.186512 0.562447
vt 0.244713 0.484733
vt 0.193054 0.480630
vt 0.265087 0.514088
vt 0.256627 0.569603
vt 0.234702 0.592296
vt 0.186202 0.588220
vt 0.264245 0.487388
vt 0.250508 0.594685
vt 0.640766 0.353793
vt 0.596762 0.335912
vt 0.728868 0.075110
vt 0.555754 0.310760
vt 0.687568 0.364669
vt 0.519912 0.279653
vt 0.489075 0.242919
vt 0.911193 0.303962
vt 0.871815 0.330877
vt 0.828216 0.350233
vt 0.945877 0.271855
vt 0.782595 0.362905
vt 0.643468 0.486595
vt 0.659250 0.504823
vt 0.615013 0.528322
vt 0.665094 0.528316
vt 0.621030 0.478062
vt 0.659232 0.551800
vt 0.284107 0.517664
vt 0.597215 0.480886
vt 0.643446 0.570004
vt 0.577486 0.494700
vt 0.621025 0.578527
vt 0.566311 0.516178
vt 0.167772 0.506650
vt 0.597229 0.575709
vt 0.566318 0.540453
vt 0.577509 0.561911
vt 0.242922 0.134177
vt 0.262690 0.144548
vt 0.239971 0.170964
vt 0.227379 0.152588
vt 0.249291 0.110753
vt 0.271441 0.110735
vt 0.207124 0.183221
vt 0.204469 0.160883
vt 0.242873 0.087345
vt 0.262563 0.076984
vt 0.172372 0.179386
vt 0.180461 0.158375
vt 0.227316 0.069002
vt 0.239816 0.050727
vt 0.143454 0.159327
vt 0.160440 0.144338
vt 0.204464 0.060737
vt 0.207092 0.038550
vt 0.127095 0.128349
vt 0.149095 0.122995
vt 0.180495 0.063220
vt 0.172471 0.042344
vt 0.127152 0.093136
vt 0.149112 0.098514
vt 0.160502 0.077218
vt 0.143610 0.062280
vt 0.274252 0.573512
vt 0.302877 0.521341
vt 0.292015 0.578507
vt 0.265885 0.598300
vt 0.280265 0.603444
vt 0.169034 0.562620
vt 0.169931 0.588389
vt 0.734924 0.367402
vt 0.997155 0.192081
vt 0.974660 0.233751
vt 0.141767 0.481842
vt 0.051814 0.495798
vt 0.234143 0.483344
vt 0.212991 0.481701
vt 0.131124 0.482686
vt 0.110624 0.485023
vt 0.090392 0.488230
vt 0.070620 0.492051
vt 0.253683 0.486025
vt 0.162424 0.480838
vt 0.182749 0.480453
vt 0.151760 0.481172
vt 0.284544 0.491123
vt 0.303439 0.494676
vt 0.274082 0.489139
vt 0.172081 0.480572
vt 0.292975 0.492797
vt 0.868230 0.520136
vt 0.889048 0.544181
vt 0.830696 0.575178
vt 0.838633 0.508880
vt 0.807219 0.512605
vt 0.781194 0.530828
vt 0.766454 0.559158
vt 0.766463 0.591179
vt 0.781225 0.619485
vt 0.807237 0.637685
vt 0.838627 0.641403
vt 0.868201 0.630161
vt 0.889025 0.606147
vt 0.896757 0.575170
vt 0.271967 0.333537
vt 0.293881 0.336936
vt 0.284211 0.400385
vt 0.264101 0.396917
vt 0.315618 0.341023
vt 0.304355 0.404852
vt 0.337070 0.345225
vt 0.324656 0.410560
vt 0.051154 0.346475
vt 0.072400 0.342210
vt 0.084130 0.405795
vt 0.063572 0.411570
vt 0.093959 0.337922
vt 0.104294 0.401211
vt 0.115857 0.334221
vt 0.124309 0.397807
vt 0.137963 0.331307
vt 0.144254 0.395245
vt 0.160305 0.329537
vt 0.164139 0.393253
vt 0.182658 0.328434
vt 0.184101 0.392404
vt 0.205079 0.328401
vt 0.204076 0.392206
vt 0.227452 0.329180
vt 0.224058 0.392876
vt 0.249769 0.330885
vt 0.244076 0.394513
vt 0.280847 0.304863
vt 0.292918 0.306420
vt 0.304161 0.308421
vt 0.316118 0.310689
vt 0.325754 0.312603
vt 0.337713 0.314749
vt 0.050129 0.316032
vt 0.062050 0.313751
vt 0.071622 0.311750
vt 0.083571 0.309451
vt 0.094220 0.307382
vt 0.106259 0.305468
vt 0.117343 0.303717
vt 0.129455 0.302294
vt 0.140773 0.301046
vt 0.152937 0.300082
vt 0.164358 0.299316
vt 0.176546 0.298934
vt 0.187583 0.298630
vt 0.199775 0.298494
vt 0.211553 0.298696
vt 0.223724 0.299318
vt 0.234340 0.299921
vt 0.246508 0.300584
vt 0.258514 0.301798
vt 0.270594 0.303386
vt 0.921193 0.873958
vt 0.946500 0.887235
vt 0.917415 0.921052
vt 0.901296 0.897528
vt 0.929347 0.843971
vt 0.957703 0.843948
vt 0.875365 0.936743
vt 0.871966 0.908147
vt 0.830876 0.931834
vt 0.841231 0.904935
vt 0.793856 0.906155
vt 0.815601 0.886966
vt 0.772913 0.866497
vt 0.801078 0.859643
vt 0.772986 0.821418
vt 0.801099 0.828303
vt 0.794056 0.781916
vt 0.815680 0.801041
vt 0.831003 0.756395
vt 0.841275 0.783120
vt 0.875324 0.751538
vt 0.871960 0.779942
vt 0.917217 0.767126
vt 0.901215 0.790522
vt 0.946338 0.800741
vt 0.921131 0.814004
vt 0.277218 0.429051
vt 0.259153 0.426320
vt 0.294793 0.433182
vt 0.311227 0.439062
vt 0.093337 0.434138
vt 0.076867 0.439719
vt 0.111146 0.430535
vt 0.129479 0.427150
vt 0.147942 0.424624
vt 0.166585 0.422992
vt 0.185126 0.421854
vt 0.203722 0.421662
vt 0.222233 0.422747
vt 0.240789 0.423889
vt 0.505897 0.924301
vt 0.445258 0.941145
vt 0.373845 0.558610
vt 0.381895 0.947121
vt 0.318949 0.943489
vt 0.256741 0.929033
vt 0.198252 0.905266
vt 0.143744 0.871834
vt 0.096103 0.830486
vt 0.055116 0.781660
vt 0.730448 0.714086
vt 0.700549 0.769474
vt 0.662290 0.820121
vt 0.616188 0.862798
vt 0.563848 0.898572
vn 0.015435 0.007211 -0.999855
vn 0.028411 0.011976 -0.999525
vn 0.006287 -0.002505 -0.999977
vn 0.006544 0.022039 -0.999736
vn 0.003874 0.013389 -0.999903
vn -0.011510 0.009410 -0.999890
vn -0.010736 0.005289 -0.999928
vn -0.010386 -0.009970 -0.999896
vn -0.011536 -0.014711 -0.999825
vn 0.003709 -0.018085 -0.999830
vn 0.007151 -0.026951 -0.999611
vn 0.015622 -0.012502 -0.999800
vn 0.028187 -0.017304 -0.999453
vn 0.017106 -0.002429 -0.999851
vn 0.881432 0.464047 -0.087959
vn 0.567716 0.818380 -0.089183
vn 0.568689 0.821136 0.048254
vn 0.883725 0.465571 0.047688
vn 0.118930 0.988953 -0.088477
vn 0.118636 0.991793 0.047658
vn -0.351069 0.932077 -0.089348
vn -0.352904 0.934430 0.047954
vn -0.746834 0.659020 -0.089066
vn -0.749208 0.660620 0.047636
vn -0.966767 0.239542 -0.089342
vn -0.969634 0.239859 0.047723
vn -0.966356 -0.241202 -0.089317
vn -0.969203 -0.241592 0.047742
vn -0.745874 -0.660125 -0.088927
vn -0.748199 -0.661761 0.047650
vn -0.350562 -0.932284 -0.089181
vn -0.352355 -0.934635 0.047994
vn 0.118935 -0.988969 -0.088290
vn 0.118632 -0.991792 0.047697
vn 0.566864 -0.818989 -0.089010
vn 0.567789 -0.821757 0.048281
vn 0.880603 -0.465635 -0.087875
vn 0.882853 -0.467220 0.047711
vn 0.996008 -0.000886 -0.089260
vn 0.998820 -0.000935 0.048553
vn 0.809401 0.425312 -0.404943
vn 0.521480 0.748825 -0.409046
vn 0.110310 0.907184 -0.406017
vn -0.320051 0.854671 -0.408785
vn -0.684564 0.604539 -0.407314
vn -0.886014 0.220105 -0.408085
vn -0.885562 -0.222204 -0.407927
vn -0.683584 -0.606124 -0.406604
vn -0.319542 -0.855290 -0.407887
vn 0.110365 -0.907619 -0.405027
vn 0.520631 -0.749908 -0.408144
vn 0.808530 -0.427398 -0.404487
vn 0.912184 -0.001119 -0.409780
vn 0.114422 0.063841 0.991379
vn 0.114422 0.063848 0.991378
vn 0.068966 0.100919 0.992501
vn 0.069426 0.100605 0.992501
vn 0.114922 0.000704 0.993374
vn 0.114923 0.000764 0.993374
vn 0.010150 0.137234 0.990487
vn 0.010241 0.137193 0.990491
vn -0.048593 0.126972 0.990715
vn -0.048059 0.127178 0.990715
vn -0.112497 0.092464 0.989341
vn -0.112449 0.092504 0.989342
vn -0.140717 0.037549 0.989338
vn -0.140680 0.037745 0.989335
vn -0.139914 -0.036132 0.989504
vn -0.139858 -0.036406 0.989502
vn -0.111520 -0.090725 0.989612
vn -0.111436 -0.090794 0.989615
vn -0.048157 -0.123578 0.991166
vn -0.047589 -0.123790 0.991167
vn 0.010116 -0.133628 0.990980
vn 0.010212 -0.133586 0.990985
vn 0.067983 -0.098291 0.992833
vn 0.068379 -0.098025 0.992832
vn 0.113238 -0.062280 0.991614
vn 0.113236 -0.062288 0.991614
vn 0.562082 0.808346 0.175043
vn 0.871866 0.457945 0.173596
vn 0.119108 0.977587 0.173599
vn -0.346353 0.921739 0.174462
vn -0.737896 0.652164 0.173759
vn -0.956012 0.236160 0.173983
vn -0.955271 -0.239156 0.173957
vn -0.736245 -0.654074 0.173582
vn -0.345321 -0.922163 0.174268
vn 0.119028 -0.977634 0.173388
vn 0.560530 -0.809463 0.174859
vn 0.870448 -0.460668 0.173510
vn 0.984405 -0.001682 0.175907
vn -0.870990 -0.455695 0.183628
vn -0.561004 -0.806861 0.185066
vn 0.008567 -0.003661 0.999957
vn -0.120869 -0.975652 0.183015
vn 0.345450 -0.920254 0.183838
vn 0.735540 -0.652356 0.182794
vn 0.954380 -0.235797 0.183190
vn 0.953799 0.237953 0.183428
vn 0.734283 0.653620 0.183329
vn 0.344536 0.920434 0.184653
vn -0.120942 0.975489 0.183830
vn -0.559754 0.807583 0.185701
vn -0.869842 0.457725 0.184020
vn -0.982530 0.001252 0.186098
vn -0.015435 0.007211 -0.999855
vn -0.006287 -0.002505 -0.999977
vn -0.028411 0.011975 -0.999525
vn -0.006544 0.022040 -0.999736
vn -0.003874 0.013388 -0.999903
vn 0.011510 0.009409 -0.999890
vn 0.010736 0.005288 -0.999928
vn 0.010386 -0.009971 -0.999896
vn 0.011536 -0.014711 -0.999825
vn -0.003709 -0.018085 -0.999830
vn -0.007151 -0.026951 -0.999611
vn -0.015622 -0.012501 -0.999800
vn -0.028187 -0.017304 -0.999453
vn -0.017106 -0.002429 -0.999851
vn -0.881433 0.464047 -0.087959
vn -0.883725 0.465571 0.047688
vn -0.568689 0.821136 0.048254
vn -0.567716 0.818380 -0.089183
vn -0.118636 0.991793 0.047658
vn -0.118930 0.988953 -0.088477
vn 0.352904 0.934430 0.047954
vn 0.351069 0.932077 -0.089348
vn 0.749208 0.660620 0.047636
vn 0.746834 0.659020 -0.089066
vn 0.969634 0.239859 0.047723
vn 0.966767 0.239542 -0.089342
vn 0.969203 -0.241592 0.047742
vn 0.966356 -0.241201 -0.089317
vn 0.748199 -0.661761 0.047650
vn 0.745874 -0.660124 -0.088927
vn 0.352355 -0.934635 0.047994
vn 0.350562 -0.932284 -0.089181
vn -0.118632 -0.991792 0.047697
vn -0.118935 -0.988969 -0.088290
vn -0.567789 -0.821757 0.048281
vn -0.566864 -0.818989 -0.089010
vn -0.882853 -0.467220 0.047711
vn -0.880603 -0.465635 -0.087875
vn -0.998820 -0.000935 0.048553
vn -0.996008 -0.000886 -0.089260
vn -0.809401 0.425312 -0.404943
vn -0.521480 0.748825 -0.409046
vn -0.110310 0.907184 -0.406017
vn 0.320051 0.854671 -0.408785
vn 0.684564 0.604539 -0.407314
vn 0.886014 0.220105 -0.408085
vn 0.885562 -0.222204 -0.407928
vn 0.683584 -0.606124 -0.406604
vn 0.319542 -0.855290 -0.407887
vn -0.110365 -0.907619 -0.405027
vn -0.520631 -0.749908 -0.408144
vn -0.808530 -0.427398 -0.404488
vn -0.912184 -0.001119 -0.409781
vn -0.114422 0.063841 0.991379
vn -0.069426 0.100605 0.992501
vn -0.068966 0.100919 0.992501
vn -0.114421 0.063848 0.991378
vn -0.114923 0.000764 0.993374
vn -0.114922 0.000704 0.993374
vn -0.010241 0.137193 0.990491
vn -0.010150 0.137234 0.990487
vn 0.048059 0.127179 0.990715
vn 0.048593 0.126973 0.990715
vn 0.112449 0.092505 0.989342
vn 0.112497 0.092465 0.989341
vn 0.140681 0.037745 0.989335
vn 0.140717 0.037549 0.989338
vn 0.139858 -0.036406 0.989502
vn 0.139915 -0.036132 0.989504
vn 0.111436 -0.090794 0.989615
vn 0.111521 -0.090725 0.989612
vn 0.047589 -0.123791 0.991167
vn 0.048157 -0.123579 0.991166
vn -0.010212 -0.133586 0.990985
vn -0.010116 -0.133628 0.990980
vn -0.068379 -0.098025 0.992832
vn -0.067983 -0.098291 0.992833
vn -0.113236 -0.062288 0.991614
vn -0.113238 -0.062279 0.991614
vn -0.871866 0.457945 0.173595
vn -0.562082 0.808347 0.175043
vn -0.119108 0.977587 0.173599
vn 0.346353 0.921739 0.174462
vn 0.737896 0.652164 0.173759
vn 0.956012 0.236160 0.173983
vn 0.955271 -0.239155 0.173957
vn 0.736245 -0.654074 0.173582
vn 0.345321 -0.922163 0.174268
vn -0.119028 -0.977634 0.173388
vn -0.560530 -0.809463 0.174859
vn -0.870448 -0.460669 0.173510
vn -0.984405 -0.001682 0.175907
vn 0.870990 -0.455694 0.183628
vn -0.008568 -0.003662 0.999957
vn 0.561004 -0.806861 0.185066
vn 0.120869 -0.975652 0.183015
vn -0.345450 -0.920254 0.183838
vn -0.735540 -0.652356 0.182794
vn -0.954380 -0.235797 0.183190
vn -0.953799 0.237952 0.183429
vn -0.734283 0.653620 0.183329
vn -0.344536 0.920434 0.184653
vn 0.120942 0.975489 0.183830
vn 0.559754 0.807583 0.185701
vn 0.869842 0.457725 0.184020
vn 0.982530 0.001252 0.186098
s 1
g pCylinder21
usemtl initialShadingGroup
f 2/55/1 1/56/2 14/57/3
f 3/59/4 2/55/1 14/57/3
f 4/62/5 3/59/4 14/57/3
f 5/64/6 4/62/5 14/57/3
f 6/66/7 5/64/6 14/57/3
f 7/69/8 6/66/7 14/57/3
f 8/70/9 7/69/8 14/57/3
f 9/68/10 8/70/9 14/57/3
f 10/65/11 9/68/10 14/57/3
f 11/63/12 10/65/11 14/57/3
f 12/60/13 11/63/12 14/57/3
f 13/58/14 12/60/13 14/57/3
f 1/56/2 13/58/14 14/57/3
s 2
f 29/29/15 30/37/16 17/38/17 16/30/18
f 30/37/16 31/61/19 18/97/20 17/38/17
f 31/61/19 32/98/21 19/99/22 18/97/20
f 32/11/21 33/1/23 20/4/24 19/12/22
f 33/1/23 34/2/25 21/3/26 20/4/24
f 34/2/25 35/7/27 22/8/28 21/3/26
f 35/7/27 36/14/29 23/15/30 22/8/28
f 36/14/29 37/19/31 24/20/32 23/15/30
f 37/19/31 38/67/33 25/102/34 24/20/32
f 38/67/33 39/33/35 26/34/36 25/102/34
f 39/33/35 40/23/37 27/26/38 26/34/36
f 40/23/37 41/24/39 28/25/40 27/26/38
f 41/24/39 29/29/15 16/30/18 28/25/40
f 1/115/41 2/41/42 30/37/16 29/29/15
f 2/121/42 3/119/43 31/61/19 30/37/16
f 3/123/43 4/120/44 32/98/21 31/61/19
f 4/108/44 5/5/45 33/1/23 32/11/21
f 5/114/45 6/6/46 34/2/25 33/1/23
f 6/113/46 7/13/47 35/7/27 34/2/25
f 7/112/47 8/18/48 36/14/29 35/7/27
f 8/111/48 9/107/49 37/19/31 36/14/29
f 9/118/49 10/116/50 38/67/33 37/19/31
f 10/122/50 11/117/51 39/33/35 38/67/33
f 11/36/51 12/27/52 40/23/37 39/33/35
f 12/110/52 13/28/53 41/24/39 40/23/37
f 13/109/53 1/35/41 29/29/15 41/24/39
s 3
f 42/71/54 43/72/55 45/73/56 44/74/57
f 43/72/55 42/71/54 66/75/58 67/76/59
f 44/74/57 45/73/56 47/77/60 46/78/61
f 46/78/61 47/77/60 49/81/62 48/82/63
f 48/82/63 49/81/62 51/85/64 50/86/65
f 50/86/65 51/85/64 53/89/66 52/90/67
f 52/90/67 53/89/66 55/93/68 54/94/69
f 54/94/69 55/93/68 57/96/70 56/95/71
f 56/95/71 57/96/70 59/92/72 58/91/73
f 58/91/73 59/92/72 61/88/74 60/87/75
f 60/87/75 61/88/74 63/84/76 62/83/77
f 62/83/77 63/84/76 65/80/78 64/79/79
f 64/79/79 65/80/78 67/76/59 66/75/58
s 2
f 16/30/18 17/38/17 45/42/80 43/39/81
f 17/38/17 18/97/20 47/100/82 45/42/80
f 18/97/20 19/99/22 49/101/83 47/100/82
f 19/12/22 20/4/24 51/10/84 49/17/83
f 20/4/24 21/3/26 53/9/85 51/10/84
f 21/3/26 22/8/28 55/16/86 53/9/85
f 22/8/28 23/15/30 57/21/87 55/16/86
f 23/15/30 24/20/32 59/22/88 57/21/87
f 24/20/32 25/102/34 61/103/89 59/22/88
f 25/102/34 26/34/36 63/40/90 61/103/89
f 26/34/36 27/26/38 65/32/91 63/40/90
f 27/26/38 28/25/40 67/31/92 65/32/91
f 28/25/40 16/30/18 43/39/81 67/31/92
s 4
f 42/52/93 44/54/94 15/45/95
f 44/54/94 46/104/96 15/45/95
f 46/104/96 48/47/97 15/45/95
f 48/47/97 50/43/98 15/45/95
f 50/43/98 52/44/99 15/45/95
f 52/44/99 54/46/100 15/45/95
f 54/46/100 56/48/101 15/45/95
f 56/48/101 58/49/102 15/45/95
f 58/105/102 60/106/103 15/45/95
f 60/106/103 62/53/104 15/45/95
f 62/53/104 64/50/105 15/45/95
f 64/50/105 66/51/106 15/45/95
f 66/51/106 42/52/93 15/45/95
s 5
f 69/124/107 81/126/108 68/125/109
f 70/127/110 81/126/108 69/124/107
f 71/128/111 81/126/108 70/127/110
f 72/129/112 81/126/108 71/128/111
f 73/130/113 81/126/108 72/129/112
f 74/131/114 81/126/108 73/130/113
f 75/132/115 81/126/108 74/131/114
f 76/133/116 81/126/108 75/132/115
f 77/134/117 81/126/108 76/133/116
f 78/135/118 81/126/108 77/134/117
f 79/136/119 81/126/108 78/135/118
f 80/137/120 81/126/108 79/136/119
f 68/125/109 81/126/108 80/137/120
s 6
f 96/138/121 83/141/122 84/140/123 97/139/124
f 97/139/124 84/140/123 85/143/125 98/142/126
f 98/142/126 85/143/125 86/145/127 99/144/128
f 99/146/128 86/149/127 87/148/129 100/147/130
f 100/147/130 87/148/129 88/151/131 101/150/132
f 101/150/132 88/151/131 89/153/133 102/152/134
f 102/152/134 89/153/133 90/155/135 103/154/136
f 103/154/136 90/155/135 91/157/137 104/156/138
f 104/156/138 91/157/137 92/159/139 105/158/140
f 105/158/140 92/159/139 93/161/141 106/160/142
f 106/160/142 93/161/141 94/163/143 107/162/144
f 107/162/144 94/163/143 95/165/145 108/164/146
f 108/164/146 95/165/145 83/141/122 96/138/121
f 68/166/147 96/138/121 97/139/124 69/167/148
f 69/168/148 97/139/124 98/142/126 70/169/149
f 70/170/149 98/142/126 99/144/128 71/171/150
f 71/172/150 99/146/128 100/147/130 72/173/151
f 72/174/151 100/147/130 101/150/132 73/175/152
f 73/176/152 101/150/132 102/152/134 74/177/153
f 74/178/153 102/152/134 103/154/136 75/179/154
f 75/180/154 103/154/136 104/156/138 76/181/155
f 76/182/155 104/156/138 105/158/140 77/183/156
f 77/184/156 105/158/140 106/160/142 78/185/157
f 78/186/157 106/160/142 107/162/144 79/187/158
f 79/188/158 107/162/144 108/164/146 80/189/159
f 80/190/159 108/164/146 96/138/121 68/191/147
s 7
f 109/192/160 111/195/161 112/194/162 110/193/163
f 110/193/163 134/197/164 133/196/165 109/192/160
f 111/195/161 113/199/166 114/198/167 112/194/162
f 113/199/166 115/201/168 116/200/169 114/198/167
f 115/201/168 117/203/170 118/202/171 116/200/169
f 117/203/170 119/205/172 120/204/173 118/202/171
f 119/205/172 121/207/174 122/206/175 120/204/173
f 121/207/174 123/209/176 124/208/177 122/206/175
f 123/209/176 125/211/178 126/210/179 124/208/177
f 125/211/178 127/213/180 128/212/181 126/210/179
f 127/213/180 129/215/182 130/214/183 128/212/181
f 129/215/182 131/217/184 132/216/185 130/214/183
f 131/217/184 133/196/165 134/197/164 132/216/185
s 6
f 83/141/122 110/219/186 112/218/187 84/140/123
f 84/140/123 112/218/187 114/220/188 85/143/125
f 85/143/125 114/220/188 116/221/189 86/145/127
f 86/149/127 116/223/189 118/222/190 87/148/129
f 87/148/129 118/222/190 120/224/191 88/151/131
f 88/151/131 120/224/191 122/225/192 89/153/133
f 89/153/133 122/225/192 124/226/193 90/155/135
f 90/155/135 124/226/193 126/227/194 91/157/137
f 91/157/137 126/227/194 128/228/195 92/159/139
f 92/159/139 128/228/195 130/229/196 93/161/141
f 93/161/141 130/229/196 132/230/197 94/163/143
f 94/163/143 132/230/197 134/231/198 95/165/145
f 95/165/145 134/231/198 110/219/186 83/141/122
s 8
f 109/232/199 82/234/200 111/233/201
f 111/233/201 82/234/200 113/235/202
f 113/235/202 82/234/200 115/236/203
f 115/236/203 82/234/200 117/237/204
f 117/237/204 82/234/200 119/238/205
f 119/238/205 82/234/200 121/239/206
f 121/239/206 82/234/200 123/240/207
f 123/240/207 82/234/200 125/241/208
f 125/242/208 82/234/200 127/243/209
f 127/243/209 82/234/200 129/244/210
f 129/244/210 82/234/200 131/245/211
f 131/245/211 82/234/200 133/246/212
f 133/246/212 82/234/200 109/232/199
